<?xml version="1.0" encoding="utf-8"?>
<!-- Generator: Adobe Illustrator 19.0.0, SVG Export Plug-In . SVG Version: 6.00 Build 0)  -->
<svg xmlns="http://www.w3.org/2000/svg" xmlns:xlink="http://www.w3.org/1999/xlink" version="1.1" x="0px" y="0px" viewBox="0 0 658.5 490.5" style="enable-background:new 0 0 658.5 490.5;" xml:space="preserve">
<style type="text/css">
	.st0{opacity:0.5;fill:url(#SVGID_1_);}
	.st1{fill:#FFFFFF;}
	.st2{fill:#1E1E1E;}
	.st3{fill:#4C5457;}
	.st4{fill:#4C5457;stroke:#010A0C;stroke-width:2;}
	.st5{fill:#757A7D;}
	.st6{fill:#B6BCBC;}
	.st7{fill:#F3FAF2;}
	.st8{fill:#404445;stroke:#000607;}
	.st9{fill:#B6BCBC;stroke:#000607;}
	.st10{fill:#727677;stroke:#000000;}
	.st11{fill:#747B83;stroke:#050000;}
	.st12{fill:none;stroke:#0B0001;stroke-width:2;stroke-miterlimit:10;}
	.st13{fill:#D6B08C;}
	.st14{fill:#EAD0B7;}
	.st15{fill:#0B0001;}
	.st16{fill:#CAC4B8;}
	.st17{fill:#FAF0E7;}
	.st18{fill:#BF0000;}
	.st19{fill:#020001;}
	.st20{fill:#050503;}
	.st21{clip-path:url(#SVGID_3_);}
	.st22{fill:#BF0000;stroke:#000000;stroke-width:3;stroke-miterlimit:10;}
	.st23{opacity:0.25;fill:#FFFFFF;}
	.st24{fill:#040402;}
	.st25{fill:#B8BAAC;}
	.st26{fill:#060200;}
	.st27{fill:#FAEFE9;}
	.st28{clip-path:url(#SVGID_5_);}
	.st29{fill:#FEF4DB;}
	.st30{fill:none;stroke:#000407;stroke-width:2;stroke-miterlimit:10;}
	.st31{fill:#D6AF8E;}
	.st32{fill:none;}
	.st33{fill:#EAD2BA;stroke:#02090F;stroke-width:3;}
	.st34{fill:#7D221D;stroke:#000000;stroke-width:3;}
	.st35{fill:#7D221D;stroke:#000000;stroke-width:4;}
	.st36{fill:#030B00;}
	.st37{fill:#7D221D;stroke:#050C11;stroke-width:3;}
	.st38{fill:#00080A;}
	.st39{fill:#AA3430;}
	.st40{fill:#4D545A;}
	.st41{fill:#2A3539;stroke:#030B11;stroke-width:3;}
	.st42{fill:#0D1313;}
	.st43{fill:#887E75;stroke:#000000;stroke-width:2;}
	.st44{fill:#A83530;stroke:#000102;stroke-width:3;}
	.st45{fill:#2A3539;stroke:#000305;stroke-width:3;}
</style>

<g id="FreeVector.com_License">
	<g>
		<g id="FreeVector.com_Logo_20_">
			<g id="FreeVector.com_Logo_21_">
				<path d="M126.6,502.8c0-0.9-0.8-1.5-1.6-1.5c-1.9,0-2.1,1.6-2.1,3c0,1.3,0.6,2.7,2,2.7c1.1,0,1.7-0.7,1.9-1.7h3.2      c-0.3,2.7-2.4,4.3-5.1,4.3c-3,0-5.3-2.1-5.3-5.2c0-3.2,2-5.5,5.3-5.5c2.5,0,4.8,1.3,5,4H126.6z"/>
				<path d="M135.2,498.9c-3.1,0-5.3,2.3-5.3,5.3c0,3,2.2,5.3,5.3,5.3c3.1,0,5.3-2.3,5.3-5.3C140.5,501.2,138.3,498.9,135.2,498.9z"/>
				<path d="M117.9,506.4c-0.9,0-1.5,0.6-1.5,1.5c0,0.8,0.6,1.5,1.5,1.5c0.9,0,1.5-0.6,1.5-1.5C119.3,507,118.7,506.4,117.9,506.4z"/>
				<path d="M140.8,499.5h3.1v1.4h0c0.6-1,1.6-1.6,2.8-1.6c1.2,0,2.3,0.4,2.9,1.6c0.8-1,1.7-1.6,3.1-1.6c3.1,0,3.5,2.4,3.5,4.3v5.9      H153v-5.8c0-1.1-0.5-1.7-1.3-1.7c-1.4,0-1.5,1.1-1.5,2.7v4.8h-3.2v-5.6c0-1.2-0.3-1.9-1.2-1.9c-1.2,0-1.7,0.7-1.7,2.7v4.8h-3.2      V499.5z"/>
				<polygon points="75.1,509.3 71.4,509.3 68.1,499.5 71.4,499.5 73.2,506 73.3,506 75.1,499.5 78.3,499.5     "/>
				<path d="M80.1,505.2c0.1,1.3,0.8,2.2,2.2,2.2c0.8,0,1.5-0.4,1.8-1.1h3c-0.6,2.3-2.7,3.2-4.9,3.2c-3.2,0-5.3-1.9-5.3-5.2      c0-3,2.4-5.1,5.3-5.1c3.5,0,5.2,2.6,5.1,5.9H80.1z"/>
				<path d="M94.1,503.1c0-0.8-0.8-1.4-1.6-1.4c-1.8,0-2.1,1.5-2.1,2.9c0,1.3,0.5,2.6,1.9,2.6c1.1,0,1.7-0.6,1.8-1.7h3.1      c-0.3,2.6-2.3,4.1-4.9,4.1c-2.9,0-5.1-2-5.1-5c0-3.1,2-5.3,5.1-5.3c2.4,0,4.6,1.3,4.8,3.9H94.1z"/>
				<path d="M103.3,501.6h-2v4.4c0,0.8,0.5,0.9,1.1,0.9c0.3,0,0.5,0,0.8,0v2.4c-0.6,0-1.2,0.1-1.7,0.1c-2.7,0-3.4-0.8-3.4-3.4v-4.3      h-1.6v-2.1h1.6v-3h3.2v3h2V501.6z"/>
				<path d="M107.7,499.2c-3,0-5.1,2.2-5.1,5.2c0,2.9,2.1,5.2,5.1,5.2c3,0,5.2-2.2,5.2-5.2C112.9,501.5,110.8,499.2,107.7,499.2z"/>
				<path d="M112.7,499.5h3.1v1.7h0c0.5-1.2,1.6-1.9,2.9-1.9c0.2,0,0.5,0,0.8,0.1v2.9c-0.4-0.1-0.8-0.2-1.2-0.2      c-1.6,0-2.4,1.1-2.4,2.3v4.8h-3.2V499.5z"/>
				<path d="M43,499.5h3.1v1.7h0c0.5-1.2,1.6-1.9,2.9-1.9c0.2,0,0.5,0,0.7,0.1v2.9c-0.4-0.1-0.8-0.2-1.2-0.2c-1.6,0-2.4,1.1-2.4,2.3      v4.8H43V499.5z"/>
				<path d="M51.9,505.2c0.1,1.3,0.8,2.2,2.2,2.2c0.8,0,1.5-0.4,1.8-1.1h3c-0.6,2.3-2.7,3.2-4.9,3.2c-3.2,0-5.3-1.9-5.3-5.2      c0-3,2.4-5.1,5.3-5.1c3.5,0,5.2,2.6,5.1,5.9H51.9z"/>
				<path d="M62,505.2c0.1,1.3,0.8,2.2,2.2,2.2c0.8,0,1.5-0.4,1.8-1.1h3c-0.6,2.3-2.7,3.2-4.9,3.2c-3.2,0-5.3-1.9-5.3-5.2      c0-3,2.4-5.1,5.3-5.1c3.5,0,5.2,2.6,5.1,5.9H62z"/>
				<path d="M42.4,498.1c0.3,0,0.6,0,0.9,0.1v-2.3c-0.5,0-1-0.1-1.5-0.1c-2.7,0-3.7,0.9-3.7,3.7h-1.5v2.1H38v7.7h3.2v-7.7h1.9v-2.1      h-1.9v-0.4C41.2,498.2,41.7,498.1,42.4,498.1z"/>
			</g>
			<g id="FreeVector_Icon_3_">
				<circle class="st1" cx="26.1" cy="502.6" r="7.2"/>
				<g>
					<path d="M26.1,495.4c-0.7,0-1.3,0.1-1.9,0.2c0.2,0,0.4,0.2,0.5,0.5c0,0,1.4,4.5,1.5,5c0.2,0.5,0.4,1.1,0.4,1.1       c-0.1,0.1-0.2,0.2-0.3,0.4c-0.1,0.3-0.2,0.5-0.2,0.8c-0.2-0.4-1-1.4-1.6-2c0,0,0-0.4-0.2-0.9c-0.1-0.4-0.9-3.3-0.9-3.3       c-0.1-0.5-0.1-1,0.2-1.3c-2.8,1-4.9,3.7-4.9,6.8c0,2.9,1.7,5.3,4.1,6.5c-0.2-0.4-0.5-0.9-0.7-1.7c-0.2-1.3-0.3-2.2-0.4-2.9       c-0.2-1-0.2-1.2,0.2-1.7c0.2-0.2,0.4-0.3,0.5-0.4c0.2,0,0.4,0.1,0.4,0.1c0.4,0.5,1.2,1.3,1.3,1.5c0.2,0.2,0.2,0.5,0.1,0.9       c-0.1,0.1-0.2,0.2-0.3,0.2c-0.3,0.1-0.6,0-0.7-0.1c-0.2-0.2-1.3-1.2-1.3-1.2c0,0.3,0.8,0.9,1.2,1.3c0.2,0.2,0.6,0.2,0.9,0.1       c0.2-0.1,0.4-0.2,0.5-0.3c0.1-0.3,0.1-0.5,0.1-0.7c0.3,0.2,0.6,0.3,0.9,0.2c0.3-0.1,0.5-0.3,0.6-0.4c0,0.2,0.1,0.4,0.1,0.7       c0.1,0.6,0.2,1,0.3,1.2c0,0.1,0.1,0.2,0.1,0.2c0,0,0,0,0,0c-0.2,0.2-0.4,0.6-0.6,1.1c-0.1,0.3-0.2,0.8-0.2,1.2       c0,0.1,0,0.4,0,0.4c0,0,0-0.2,0.1-0.4c0-0.4,0.1-0.8,0.2-1.1c0.2-0.4,0.4-0.7,0.6-1c0,0,0,0,0,0c0.1-0.1,0-0.2,0-0.3       c-0.1-0.2-0.2-0.6-0.3-1.2c-0.1-0.9-0.2-1.3,0.1-2c0.3-0.6,1-0.6,1.2-0.5c0.1,0,0.1,0.4,0.1,0.7c0,0.3,0,0.8,0.1,1.3       c0.1,0.7,0.3,1.2,0.6,1.5c0.2,0.2,0.4,0.3,0.4,0.3c0,0-0.1-0.2-0.3-0.4c-0.2-0.3-0.4-0.8-0.5-1.4c-0.1-0.5-0.1-0.9-0.1-1.3       c0-0.5,0-0.8-0.2-0.9c-0.1,0-0.3-0.1-0.5,0l1.4-4.5c0.2-0.8,0.5-1.2,1-1.1c0,0,0,0,0,0C28.6,495.7,27.4,495.4,26.1,495.4z        M25.4,504.2c-0.4,0.1-0.8-0.2-1-0.4c-0.2-0.2-1.2-1.3-1.4-1.5c-0.3-0.3-0.1-0.9,0.6-1.2c0.2-0.1,0.5-0.1,0.6,0.1       c0.8,0.9,1.6,1.9,1.6,2.1C26,503.8,25.8,504.1,25.4,504.2z M28.6,505.9L28.6,505.9C28.6,505.9,28.6,505.9,28.6,505.9       C28.6,505.9,28.6,505.9,28.6,505.9z"/>
					<path d="M30,496.5c0.2,0.2,0.2,0.4,0.2,0.7l-1.2,5.4c-0.1,0.4-0.2,1.3-0.1,1.9c0.1,0.8,0.5,1.9,0.2,3.1       c-0.1,0.6-0.3,1.3-0.6,1.9c2.9-1,5-3.7,5-6.8C33.4,500,32.1,497.8,30,496.5z"/>
				</g>
			</g>
		</g>
		<g id="Legal_Line">
			<g>
				<path d="M170.7,499.7h2.5v9.6h-2.5V499.7z"/>
				<path d="M174.8,502.4h2.2v1h0c0.4-0.7,1.2-1.2,2-1.2c0.9,0,1.7,0.3,2,1.1c0.6-0.7,1.2-1.1,2.2-1.1c2.2,0,2.5,1.7,2.5,3v4.2h-2.3      v-4.1c0-0.8-0.4-1.2-1-1.2c-1,0-1.1,0.8-1.1,1.9v3.4h-2.3v-4c0-0.8-0.2-1.3-0.9-1.3c-0.8,0-1.2,0.5-1.2,1.9v3.4h-2.3V502.4z"/>
				<path d="M187.1,504.5c0-0.9,0.5-1.5,1.1-1.9c0.6-0.3,1.4-0.5,2.2-0.5c1.7,0,3.2,0.4,3.2,2.3v3c0,0.6,0,1.2,0.3,1.8h-2.3      c-0.1-0.2-0.1-0.4-0.1-0.7c-0.6,0.6-1.5,0.9-2.3,0.9c-1.3,0-2.4-0.7-2.4-2.1c0-2.3,2.5-2.1,4.1-2.4c0.4-0.1,0.6-0.2,0.6-0.6      c0-0.5-0.6-0.7-1.1-0.7c-0.6,0-1,0.3-1.1,0.9H187.1z M190.1,508.1c1.1,0,1.5-0.6,1.4-2.1c-0.3,0.2-0.9,0.2-1.4,0.4      c-0.5,0.1-0.9,0.3-0.9,0.9C189.1,507.9,189.6,508.1,190.1,508.1z"/>
				<path d="M201.9,508.5c0,1.1-0.2,3.3-3.5,3.3c-1.6,0-3.2-0.4-3.4-2.2h2.3c0.1,0.3,0.2,0.5,0.4,0.6c0.2,0.1,0.5,0.1,0.8,0.1      c1.1,0,1.2-0.8,1.2-1.6V508h0c-0.4,0.6-1.1,1-1.9,1c-2.1,0-3.1-1.5-3.1-3.5c0-1.9,1.1-3.4,3.1-3.4c0.8,0,1.5,0.4,1.9,1.1h0v-0.9      h2.2V508.5z M198.4,503.9c-1,0-1.3,0.9-1.3,1.7c0,0.8,0.4,1.6,1.3,1.6c1,0,1.4-0.8,1.4-1.6C199.8,504.8,199.4,503.9,198.4,503.9      z"/>
				<path d="M205.3,506.4c0,1,0.6,1.6,1.6,1.6c0.6,0,1.1-0.3,1.3-0.8h2.1c-0.4,1.6-1.9,2.3-3.5,2.3c-2.3,0-3.8-1.4-3.8-3.7      c0-2.1,1.7-3.7,3.8-3.7c2.5,0,3.7,1.9,3.6,4.2H205.3z M208.2,505.1c0-0.8-0.6-1.4-1.4-1.4c-0.8,0-1.3,0.6-1.5,1.4H208.2z"/>
				<path d="M213.4,507c0,0.3,0.1,0.6,0.4,0.8c0.2,0.2,0.5,0.2,0.8,0.2c0.4,0,1.1-0.2,1.1-0.7c0-0.5-0.7-0.6-1.1-0.7      c-1.4-0.4-3.2-0.4-3.2-2.3c0-1.7,1.8-2.1,3.2-2.1c1.5,0,3.1,0.4,3.2,2.3h-2.1c0-0.3-0.1-0.5-0.3-0.6c-0.2-0.1-0.4-0.2-0.7-0.2      c-0.4,0-1,0-1,0.5c0,0.7,1.5,0.8,2.6,1c1.4,0.3,1.8,1.3,1.8,1.9c0,1.9-1.8,2.5-3.3,2.5c-1.7,0-3.3-0.6-3.4-2.5H213.4z"/>
			</g>
			<g>
				<path d="M223.2,504.5c0-0.9,0.5-1.5,1.1-1.9c0.6-0.3,1.4-0.5,2.2-0.5c1.7,0,3.2,0.4,3.2,2.3v3c0,0.6,0,1.2,0.3,1.8h-2.3      c-0.1-0.2-0.1-0.4-0.1-0.7c-0.6,0.6-1.5,0.9-2.3,0.9c-1.3,0-2.4-0.7-2.4-2.1c0-2.3,2.5-2.1,4.1-2.4c0.4-0.1,0.6-0.2,0.6-0.6      c0-0.5-0.6-0.7-1.1-0.7c-0.6,0-1,0.3-1.1,0.9H223.2z M226.1,508.1c1.1,0,1.5-0.6,1.4-2.1c-0.3,0.2-0.9,0.2-1.4,0.4      c-0.5,0.1-0.9,0.3-0.9,0.9C225.2,507.9,225.6,508.1,226.1,508.1z"/>
				<path d="M231.3,502.4h2.2v1.2h0c0.3-0.9,1.1-1.4,2.1-1.4c0.2,0,0.4,0,0.5,0.1v2.1c-0.3-0.1-0.6-0.1-0.9-0.1      c-1.1,0-1.7,0.8-1.7,1.7v3.5h-2.3V502.4z"/>
				<path d="M238.7,506.4c0,1,0.6,1.6,1.6,1.6c0.6,0,1.1-0.3,1.3-0.8h2.1c-0.4,1.6-1.9,2.3-3.5,2.3c-2.3,0-3.8-1.4-3.8-3.7      c0-2.1,1.7-3.7,3.8-3.7c2.5,0,3.7,1.9,3.6,4.2H238.7z M241.5,505.1c0-0.8-0.6-1.4-1.4-1.4c-0.8,0-1.3,0.6-1.5,1.4H241.5z"/>
			</g>
			<g>
				<path d="M249.1,502.4h2.2v0.8h0c0.4-0.7,1.1-1,1.9-1c2.2,0,3.1,1.9,3.1,3.8c0,1.8-1,3.5-2.9,3.5c-0.9,0-1.5-0.3-2-1h0v3.1h-2.3      V502.4z M251.3,505.8c0,1.2,0.3,2,1.4,2c1,0,1.4-1.1,1.4-2c0-0.9-0.3-1.9-1.4-1.9C252.1,503.9,251.3,504.3,251.3,505.8z"/>
				<path d="M257.7,502.4h2.2v1.2h0c0.3-0.9,1.1-1.4,2.1-1.4c0.2,0,0.4,0,0.5,0.1v2.1c-0.3-0.1-0.6-0.1-0.9-0.1      c-1.1,0-1.7,0.8-1.7,1.7v3.5h-2.3V502.4z"/>
				<path d="M266.4,502.2c2.2,0,3.7,1.6,3.7,3.7s-1.5,3.7-3.7,3.7c-2.2,0-3.7-1.6-3.7-3.7S264.2,502.2,266.4,502.2z M266.4,507.8      c1.1,0,1.4-1,1.4-1.9c0-0.9-0.3-1.9-1.4-1.9c-1.1,0-1.4,1.1-1.4,1.9C265,506.7,265.3,507.8,266.4,507.8z"/>
				<path d="M271.3,502.4h2.2v0.8h0c0.4-0.7,1.1-1,1.9-1c2.2,0,3.1,1.9,3.1,3.8c0,1.8-1,3.5-2.9,3.5c-0.9,0-1.5-0.3-2-1h0v3.1h-2.3      V502.4z M273.5,505.8c0,1.2,0.3,2,1.4,2c1,0,1.4-1.1,1.4-2c0-0.9-0.3-1.9-1.4-1.9C274.3,503.9,273.5,504.3,273.5,505.8z"/>
				<path d="M281.7,506.4c0,1,0.6,1.6,1.6,1.6c0.6,0,1.1-0.3,1.3-0.8h2.1c-0.4,1.6-1.9,2.3-3.5,2.3c-2.3,0-3.8-1.4-3.8-3.7      c0-2.1,1.7-3.7,3.8-3.7c2.5,0,3.7,1.9,3.6,4.2H281.7z M284.5,505.1c0-0.8-0.6-1.4-1.4-1.4c-0.8,0-1.3,0.6-1.5,1.4H284.5z"/>
				<path d="M288,502.4h2.2v1.2h0c0.3-0.9,1.1-1.4,2.1-1.4c0.2,0,0.4,0,0.5,0.1v2.1c-0.3-0.1-0.6-0.1-0.9-0.1      c-1.1,0-1.7,0.8-1.7,1.7v3.5H288V502.4z"/>
				<path d="M297.9,503.8h-1.4v3.2c0,0.5,0.3,0.7,0.8,0.7c0.2,0,0.4,0,0.6,0v1.7c-0.4,0-0.8,0.1-1.2,0.1c-1.9,0-2.4-0.6-2.4-2.5      v-3.1H293v-1.5h1.2v-2.1h2.3v2.1h1.4V503.8z"/>
				<path d="M302.7,509.9c-0.6,1.5-1.4,1.7-2.9,1.7h-1.1v-1.9h0.8c0.5,0,0.9-0.3,0.9-0.8c0-0.4-0.4-1.4-0.6-1.8l-1.8-4.8h2.4      l1.3,4.5h0l1.3-4.5h2.3L302.7,509.9z"/>
			</g>
			<g>
				<path d="M313.6,502.2c2.2,0,3.7,1.6,3.7,3.7s-1.5,3.7-3.7,3.7c-2.2,0-3.7-1.6-3.7-3.7S311.5,502.2,313.6,502.2z M313.6,507.8      c1.1,0,1.4-1,1.4-1.9c0-0.9-0.3-1.9-1.4-1.9c-1.1,0-1.4,1.1-1.4,1.9C312.3,506.7,312.6,507.8,313.6,507.8z"/>
				<path d="M319,503.8h-1.1v-1.5h1.1c0-2,0.7-2.6,2.6-2.6c0.4,0,0.7,0,1.1,0v1.6c-0.2,0-0.4,0-0.6,0c-0.5,0-0.8,0.1-0.8,0.7v0.3      h1.4v1.5h-1.4v5.5H319V503.8z"/>
			</g>
			<g>
				<path d="M331.9,503.8h-1.4v3.2c0,0.5,0.3,0.7,0.8,0.7c0.2,0,0.4,0,0.6,0v1.7c-0.4,0-0.8,0.1-1.2,0.1c-1.9,0-2.4-0.6-2.4-2.5      v-3.1h-1.2v-1.5h1.2v-2.1h2.3v2.1h1.4V503.8z"/>
				<path d="M332.9,499.7h2.3v3.6h0c0.3-0.7,1.3-1.2,2.1-1.2c2.3,0,2.5,1.7,2.5,2.7v4.5h-2.3V506c0-1,0.1-1.9-1.1-1.9      c-0.9,0-1.2,0.7-1.2,1.5v3.8h-2.3V499.7z"/>
				<path d="M343.3,506.4c0,1,0.6,1.6,1.6,1.6c0.6,0,1.1-0.3,1.3-0.8h2.1c-0.4,1.6-1.9,2.3-3.5,2.3c-2.3,0-3.8-1.4-3.8-3.7      c0-2.1,1.7-3.7,3.8-3.7c2.5,0,3.7,1.9,3.6,4.2H343.3z M346.2,505.1c0-0.8-0.6-1.4-1.4-1.4c-0.8,0-1.3,0.6-1.5,1.4H346.2z"/>
			</g>
			<g>
				<path d="M360.7,509.3h-2.2v-0.8h0c-0.4,0.7-1.1,1-1.9,1c-2.2,0-3.1-1.9-3.1-3.8c0-1.8,1-3.5,2.9-3.5c0.9,0,1.5,0.3,2,1h0v-3.4      h2.3V509.3z M355.8,505.8c0,1,0.3,2,1.4,2c1.1,0,1.4-1.1,1.4-1.9c0-1-0.4-1.9-1.4-1.9C356.1,503.9,355.8,504.9,355.8,505.8z"/>
				<path d="M364.2,506.4c0,1,0.6,1.6,1.6,1.6c0.6,0,1.1-0.3,1.3-0.8h2.1c-0.4,1.6-1.9,2.3-3.5,2.3c-2.3,0-3.8-1.4-3.8-3.7      c0-2.1,1.7-3.7,3.8-3.7c2.5,0,3.7,1.9,3.6,4.2H364.2z M367.1,505.1c0-0.8-0.6-1.4-1.4-1.4c-0.8,0-1.3,0.6-1.5,1.4H367.1z"/>
				<path d="M372.2,507c0,0.3,0.1,0.6,0.4,0.8c0.2,0.2,0.5,0.2,0.8,0.2c0.4,0,1.1-0.2,1.1-0.7c0-0.5-0.7-0.6-1.1-0.7      c-1.4-0.4-3.2-0.4-3.2-2.3c0-1.7,1.8-2.1,3.2-2.1c1.5,0,3.1,0.4,3.2,2.3h-2.1c0-0.3-0.1-0.5-0.3-0.6c-0.2-0.1-0.4-0.2-0.7-0.2      c-0.4,0-1,0-1,0.5c0,0.7,1.5,0.8,2.6,1c1.4,0.3,1.8,1.3,1.8,1.9c0,1.9-1.8,2.5-3.3,2.5c-1.7,0-3.3-0.6-3.4-2.5H372.2z"/>
				<path d="M380.3,501.5H378v-1.7h2.3V501.5z M378,502.4h2.3v7H378V502.4z"/>
				<path d="M388.7,508.5c0,1.1-0.2,3.3-3.5,3.3c-1.6,0-3.2-0.4-3.4-2.2h2.3c0.1,0.3,0.2,0.5,0.4,0.6c0.2,0.1,0.5,0.1,0.8,0.1      c1.1,0,1.2-0.8,1.2-1.6V508h0c-0.4,0.6-1.1,1-1.9,1c-2.1,0-3.1-1.5-3.1-3.5c0-1.9,1.1-3.4,3.1-3.4c0.8,0,1.5,0.4,1.9,1.1h0v-0.9      h2.2V508.5z M385.1,503.9c-1,0-1.3,0.9-1.3,1.7c0,0.8,0.4,1.6,1.3,1.6c1,0,1.4-0.8,1.4-1.6C386.5,504.8,386.1,503.9,385.1,503.9      z"/>
				<path d="M390.1,502.4h2.2v1h0c0.4-0.7,1.4-1.2,2.2-1.2c2.3,0,2.5,1.7,2.5,2.7v4.5h-2.3V506c0-1,0.1-1.9-1.1-1.9      c-0.9,0-1.2,0.7-1.2,1.5v3.8h-2.3V502.4z"/>
				<path d="M400.5,506.4c0,1,0.6,1.6,1.6,1.6c0.6,0,1.1-0.3,1.3-0.8h2.1c-0.4,1.6-1.9,2.3-3.5,2.3c-2.3,0-3.8-1.4-3.8-3.7      c0-2.1,1.7-3.7,3.8-3.7c2.5,0,3.7,1.9,3.6,4.2H400.5z M403.4,505.1c0-0.8-0.6-1.4-1.4-1.4c-0.8,0-1.3,0.6-1.5,1.4H403.4z"/>
				<path d="M406.9,502.4h2.2v1.2h0c0.3-0.9,1.1-1.4,2.1-1.4c0.2,0,0.4,0,0.5,0.1v2.1c-0.3-0.1-0.6-0.1-0.9-0.1      c-1.1,0-1.7,0.8-1.7,1.7v3.5h-2.3V502.4z"/>
			</g>
			<path d="M411.4,506.8h2.5v2.5h-2.5V506.8z"/>
			<g>
				<path d="M429.1,503.2c-0.1-1-0.9-1.5-1.9-1.5c-1.6,0-2.2,1.4-2.2,2.8c0,1.4,0.6,2.8,2.2,2.8c1.2,0,1.8-0.7,1.9-1.8h2.5      c-0.1,2.5-1.9,3.9-4.4,3.9c-2.9,0-4.8-2.2-4.8-5c0-2.8,1.9-5,4.8-5c2.1,0,4.3,1.3,4.4,3.6H429.1z"/>
				<path d="M432.9,499.7h2.3v3.6h0c0.3-0.7,1.3-1.2,2.1-1.2c2.3,0,2.5,1.7,2.5,2.7v4.5h-2.3V506c0-1,0.1-1.9-1.1-1.9      c-0.9,0-1.2,0.7-1.2,1.5v3.8h-2.3V499.7z"/>
				<path d="M443.3,506.4c0,1,0.6,1.6,1.6,1.6c0.6,0,1.1-0.3,1.3-0.8h2.1c-0.4,1.6-1.9,2.3-3.5,2.3c-2.3,0-3.8-1.4-3.8-3.7      c0-2.1,1.7-3.7,3.8-3.7c2.5,0,3.7,1.9,3.6,4.2H443.3z M446.1,505.1c0-0.8-0.6-1.4-1.4-1.4c-0.8,0-1.3,0.6-1.5,1.4H446.1z"/>
				<path d="M454,504.9c0-0.6-0.5-1-1.1-1c-1.3,0-1.5,1.1-1.5,2.1c0,0.9,0.4,1.8,1.4,1.8c0.8,0,1.2-0.5,1.3-1.2h2.2      c-0.2,1.9-1.7,2.9-3.5,2.9c-2.1,0-3.7-1.4-3.7-3.6c0-2.2,1.4-3.8,3.7-3.8c1.7,0,3.3,0.9,3.4,2.8H454z"/>
				<path d="M457.5,499.7h2.3v4.9l2.1-2.3h2.6l-2.6,2.6l2.9,4.3h-2.8l-1.7-2.8l-0.6,0.6v2.2h-2.3V499.7z"/>
			</g>
			<g>
				<path d="M469.7,499.7h2.3v9.6h-2.3V499.7z"/>
				<path d="M476,501.5h-2.3v-1.7h2.3V501.5z M473.7,502.4h2.3v7h-2.3V502.4z"/>
				<path d="M482.1,504.9c0-0.6-0.5-1-1.1-1c-1.3,0-1.5,1.1-1.5,2.1c0,0.9,0.4,1.8,1.4,1.8c0.8,0,1.2-0.5,1.3-1.2h2.2      c-0.2,1.9-1.7,2.9-3.5,2.9c-2.1,0-3.7-1.4-3.7-3.6c0-2.2,1.4-3.8,3.7-3.8c1.7,0,3.3,0.9,3.4,2.8H482.1z"/>
				<path d="M487.5,506.4c0,1,0.6,1.6,1.6,1.6c0.6,0,1.1-0.3,1.3-0.8h2.1c-0.4,1.6-1.9,2.3-3.5,2.3c-2.3,0-3.8-1.4-3.8-3.7      c0-2.1,1.7-3.7,3.8-3.7c2.5,0,3.7,1.9,3.6,4.2H487.5z M490.3,505.1c0-0.8-0.6-1.4-1.4-1.4c-0.8,0-1.3,0.6-1.5,1.4H490.3z"/>
				<path d="M493.8,502.4h2.2v1h0c0.4-0.7,1.4-1.2,2.2-1.2c2.3,0,2.5,1.7,2.5,2.7v4.5h-2.3V506c0-1,0.1-1.9-1.1-1.9      c-0.9,0-1.2,0.7-1.2,1.5v3.8h-2.3V502.4z"/>
				<path d="M504,507c0,0.3,0.1,0.6,0.4,0.8c0.2,0.2,0.5,0.2,0.8,0.2c0.4,0,1.1-0.2,1.1-0.7c0-0.5-0.7-0.6-1.1-0.7      c-1.4-0.4-3.2-0.4-3.2-2.3c0-1.7,1.8-2.1,3.2-2.1c1.5,0,3.1,0.4,3.2,2.3h-2.1c0-0.3-0.1-0.5-0.3-0.6c-0.2-0.1-0.4-0.2-0.7-0.2      c-0.4,0-1,0-1,0.5c0,0.7,1.5,0.8,2.6,1c1.4,0.3,1.8,1.3,1.8,1.9c0,1.9-1.8,2.5-3.3,2.5c-1.7,0-3.3-0.6-3.4-2.5H504z"/>
				<path d="M511.6,506.4c0,1,0.6,1.6,1.6,1.6c0.5,0,1.1-0.3,1.3-0.8h2.1c-0.4,1.6-1.9,2.3-3.5,2.3c-2.3,0-3.8-1.4-3.8-3.7      c0-2.1,1.7-3.7,3.8-3.7c2.5,0,3.7,1.9,3.6,4.2H511.6z M514.5,505.1c0-0.8-0.6-1.4-1.4-1.4c-0.8,0-1.3,0.6-1.5,1.4H514.5z"/>
			</g>
			<g>
				<path d="M522.6,503.8h-1.1v-1.5h1.1c0-2,0.7-2.6,2.6-2.6c0.4,0,0.7,0,1.1,0v1.6c-0.2,0-0.4,0-0.6,0c-0.5,0-0.8,0.1-0.8,0.7v0.3      h1.4v1.5h-1.4v5.5h-2.3V503.8z"/>
				<path d="M530.4,502.2c2.2,0,3.7,1.6,3.7,3.7s-1.5,3.7-3.7,3.7s-3.7-1.6-3.7-3.7S528.3,502.2,530.4,502.2z M530.4,507.8      c1.1,0,1.4-1,1.4-1.9c0-0.9-0.3-1.9-1.4-1.9c-1.1,0-1.4,1.1-1.4,1.9C529,506.7,529.4,507.8,530.4,507.8z"/>
				<path d="M535.4,502.4h2.2v1.2h0c0.3-0.9,1.1-1.4,2.1-1.4c0.2,0,0.4,0,0.5,0.1v2.1c-0.3-0.1-0.6-0.1-0.9-0.1      c-1.1,0-1.7,0.8-1.7,1.7v3.5h-2.3V502.4z"/>
			</g>
			<g>
				<path d="M545.2,502.4h2.2v0.8h0c0.4-0.7,1.1-1,1.9-1c2.2,0,3.1,1.9,3.1,3.8c0,1.8-1,3.5-2.9,3.5c-0.9,0-1.5-0.3-2-1h0v3.1h-2.3      V502.4z M547.4,505.8c0,1.2,0.3,2,1.4,2c1,0,1.4-1.1,1.4-2c0-0.9-0.4-1.9-1.4-1.9C548.2,503.9,547.4,504.3,547.4,505.8z"/>
				<path d="M555.6,506.4c0,1,0.6,1.6,1.6,1.6c0.6,0,1.1-0.3,1.3-0.8h2.1c-0.4,1.6-1.9,2.3-3.5,2.3c-2.3,0-3.8-1.4-3.8-3.7      c0-2.1,1.7-3.7,3.8-3.7c2.5,0,3.7,1.9,3.6,4.2H555.6z M558.5,505.1c0-0.8-0.6-1.4-1.4-1.4c-0.8,0-1.3,0.6-1.5,1.4H558.5z"/>
				<path d="M562,502.4h2.2v1.2h0c0.3-0.9,1.1-1.4,2.1-1.4c0.2,0,0.4,0,0.5,0.1v2.1c-0.3-0.1-0.6-0.1-0.9-0.1      c-1.1,0-1.7,0.8-1.7,1.7v3.5H562V502.4z"/>
				<path d="M567.6,502.4h2.2v1h0c0.4-0.7,1.2-1.2,2-1.2c0.9,0,1.7,0.3,2,1.1c0.6-0.7,1.2-1.1,2.2-1.1c2.2,0,2.5,1.7,2.5,3v4.2h-2.3      v-4.1c0-0.8-0.4-1.2-1-1.2c-1,0-1.1,0.8-1.1,1.9v3.4h-2.3v-4c0-0.8-0.2-1.3-0.9-1.3c-0.8,0-1.2,0.5-1.2,1.9v3.4h-2.3V502.4z"/>
				<path d="M582.4,501.5h-2.3v-1.7h2.3V501.5z M580.1,502.4h2.3v7h-2.3V502.4z"/>
				<path d="M588.2,503.8h-1.4v3.2c0,0.5,0.3,0.7,0.8,0.7c0.2,0,0.4,0,0.6,0v1.7c-0.4,0-0.8,0.1-1.2,0.1c-1.9,0-2.4-0.6-2.4-2.5      v-3.1h-1.2v-1.5h1.2v-2.1h2.3v2.1h1.4V503.8z"/>
				<path d="M593.4,503.8H592v3.2c0,0.5,0.3,0.7,0.8,0.7c0.2,0,0.4,0,0.6,0v1.7c-0.4,0-0.8,0.1-1.2,0.1c-1.9,0-2.4-0.6-2.4-2.5v-3.1      h-1.2v-1.5h1.2v-2.1h2.3v2.1h1.4V503.8z"/>
				<path d="M596.4,506.4c0,1,0.6,1.6,1.6,1.6c0.6,0,1.1-0.3,1.3-0.8h2.1c-0.4,1.6-1.9,2.3-3.5,2.3c-2.3,0-3.8-1.4-3.8-3.7      c0-2.1,1.7-3.7,3.8-3.7c2.5,0,3.7,1.9,3.6,4.2H596.4z M599.2,505.1c0-0.8-0.6-1.4-1.4-1.4c-0.8,0-1.3,0.6-1.5,1.4H599.2z"/>
				<path d="M609.6,509.3h-2.2v-0.8h0c-0.4,0.7-1.1,1-1.9,1c-2.2,0-3.1-1.9-3.1-3.8c0-1.8,1-3.5,2.9-3.5c0.9,0,1.5,0.3,2,1h0v-3.4      h2.3V509.3z M604.6,505.8c0,1,0.3,2,1.4,2c1.1,0,1.4-1.1,1.4-1.9c0-1-0.4-1.9-1.4-1.9C605,503.9,604.6,504.9,604.6,505.8z"/>
			</g>
			<g>
				<path d="M622.3,509.3h-2.2v-1h0c-0.4,0.7-1.3,1.2-2.1,1.2c-2,0-2.6-1.2-2.6-3v-4.2h2.3v4c0,0.9,0.4,1.2,1.1,1.2      c0.5,0,1.2-0.3,1.2-1.6v-3.7h2.3V509.3z"/>
				<path d="M625.6,507c0,0.3,0.1,0.6,0.4,0.8c0.2,0.2,0.5,0.2,0.8,0.2c0.4,0,1.1-0.2,1.1-0.7c0-0.5-0.7-0.6-1.1-0.7      c-1.4-0.4-3.2-0.4-3.2-2.3c0-1.7,1.8-2.1,3.2-2.1c1.5,0,3.1,0.4,3.2,2.3h-2.1c0-0.3-0.1-0.5-0.3-0.6c-0.2-0.1-0.4-0.2-0.7-0.2      c-0.4,0-1,0-1,0.5c0,0.7,1.5,0.8,2.6,1c1.4,0.3,1.8,1.3,1.8,1.9c0,1.9-1.8,2.5-3.3,2.5c-1.7,0-3.3-0.6-3.4-2.5H625.6z"/>
				<path d="M633.2,506.4c0,1,0.6,1.6,1.6,1.6c0.6,0,1.1-0.3,1.3-0.8h2.1c-0.4,1.6-1.9,2.3-3.5,2.3c-2.3,0-3.8-1.4-3.8-3.7      c0-2.1,1.7-3.7,3.8-3.7c2.5,0,3.7,1.9,3.6,4.2H633.2z M636,505.1c0-0.8-0.6-1.4-1.4-1.4c-0.8,0-1.3,0.6-1.5,1.4H636z"/>
			</g>
			<path d="M639.6,506.8h2.5v2.5h-2.5V506.8z"/>
		</g>
	</g>
</g>
<g id="Vector_Graphics">
	<g>
		<path class="st2" d="M321.8,54.4c0,0,101,2,113.3,6.9l-24.2-31.6h-82C328.9,29.7,322.5,51.9,321.8,54.4z"/>
		<path class="st3" d="M351.4,29.7l16.6,24.7c0,0,19.1-24.7,19.9-24.7c0.8,0-10.4,0-10.4,0l-9.3,18.3l-10.7-18.3H350"/>
		<path class="st4" d="M321.8,54.4l-1.8,6.4c0,0,7.6-2.6,46.1-1.2c38.5,1.4,55.6,3.6,58.3,5.9c2.7,2.3,0-1,0-1s3.2-4.2,2.8-5.2    C426.7,58.2,362.6,53.3,321.8,54.4z"/>
		<path class="st5" d="M420.8,64.1c0,0,11.9,49.2,3.6,86.2l37.4,6.3l-7.7-44.4l-18.7-1.9c0,0-1.5-44.9-5.2-46.3    C426.7,62.7,420.8,64.1,420.8,64.1z"/>
		<path class="st6" d="M420.8,64.1c0,0-63.4-9.3-102.3-3.8c-38.9,5.5-17.7-7.2-17.7-7.2h-11.2c0,0-16.7,56.2-20.9,95.3v1.4    c0,0,116.9-8.3,142.8,0.6h13C424.4,150.3,435.7,132,420.8,64.1z"/>
		<path class="st7" d="M398,61.2l1.1,5l-1.1,81.9c0,0,8.1,0.4,14.4,2.1h7c0,0,0-85.8,1.3-86.2C420.8,64.1,399.8,61.4,398,61.2z"/>
		<g>
			<path class="st8" d="M391.2,79.1l2.1,1.7l-8.8,8.4c0,0,1.3,3-6.6-3.2c-7.9-6.2-31.1-5.1-34.5,13.1c-3.4,18.2,7.5,21.7,7.9,24     c0.4,2.2,27.6,9.1,28-14c0,0,1.2-11.1-9.6-14.7c-10.9-3.6-15.1,8.2-13,11.2c0,0,0.8,4.3,5.2,3.6c4.4-0.7,5.4-2.4,4.2-4.8     c-1.2-2.3,3-3.6,3-3.6s5.4,2.2-1.9,9.3c-7.3,7.1-12.4-3.3-12.7-3c-0.4,0.3-5.3-17,16.3-16c0,0,22.5,9.4,7.5,30.7     c0,0-17,16.9-52.8-0.8c0,0,11.6-16.9,10.5-16.3l4.4-6.1c0,0,9.5-31.9,41.9-12.7c0,0,2.6,1.4,6.8-5.1L391.2,79.1z"/>
			<path class="st9" d="M338.8,107.4c0,0-9.4,11.7-8.2,12.9c1.1,1.2,15.3,6,19.4,5.1c4.1-0.8,0.4,0.1,0.4,0.1S344.7,123,338.8,107.4     z"/>
		</g>
		<path class="st5" d="M284.2,79.1c0,0,3.2,9.2,2.6,22.6c-0.6,13.4,9.3,45.4,11.3,46.1l-29.3,1.9    C268.7,149.7,271.7,115.9,284.2,79.1z"/>
		<path class="st10" d="M276.1,103c0,0,97.1-5.1,117.2-0.3l41.8,3.4v2.5c0,0-81.9-7.7-122.4-4l-36.5,1.1L276.1,103z"/>
		<path class="st11" d="M266.7,150.3v2.4c0,0,131.9-11,200.2,6.3l-1.6-4.8l-45.8-4.6l-8.1-0.9l-13.3-0.6    C398,148.2,348.6,142.3,266.7,150.3z"/>
		<path class="st12" d="M267.2,174.6c0,0,37,2.1,38.6,2.7c1.7,0.7,14.2,9.6,14.2,9.6"/>
		<path class="st13" d="M318.2,169.9c0,0,76.4-2.5,87.7,0.7l14.1-5.8c0,0-17.8-5-119.4-1.2C300.7,163.7,314.6,169.4,318.2,169.9z"/>
		<path class="st14" d="M245,225c0,0-3.4,78.8,0,91.2c0,0,43.7,58,106.9,68.9c0,0,81.1-21.1,107.7-108.7c0,0,8.1-40.6,5.6-48.2    c0,0-9.1,13.3-15.6,25.7c-5.6,10.5-4,10.2-5.3,10.1c-2.8-0.1,17.1-28.5,14.6-92.6c0,0-41.7-16.6-191.7-6.1    c-149.9,10.5-0.8,0-0.8,0s-1.6,29,0.3,60.2c2,33.8,7.6,70.1,12.8,75c10.1,9.3,0.8,0.9,0.8,0.9s-20.4-29.7-21.4-32.7    C257.9,265.6,245,225,245,225z"/>
		<path class="st12" d="M431.6,181.2c0,0-23.3,1.1-31.6,5.4l-8.8,8.4"/>
		<path class="st12" d="M334.1,187c0,0,9.2,10.4,1.3,19.8c0,0-26.2,34.8-27.1,38.6"/>
		<path class="st15" d="M300.8,163.7c0,0,33.3,12,33.7,12.2c0.4,0.2,1.3,0.4,0.8,1.5h-3c0,0-6.1-0.7-14.6-3.5c0,0-25-9.9-27.9-9.8    L300.8,163.7z"/>
		<path class="st13" d="M374.3,192.6l6.8-1.6l1.1,0.9c0,0-3.8,6.2-2.8,8.7c1,2.5,11.8,20.3,11.8,20.3l-0.7-16.3l1.6-2.6l-0.9-5.4    c0,0,6.4-6.6,18.2-9.7c0,0,44.7-1.5,49.1,0l3.3-16.3c0,0-25-5.9-41.8-6.8c0,0-9.3,7.7-26.1,16.7l-9.9,1L374.3,192.6z"/>
		<path class="st15" d="M420,164.8c0,0-17.1,7-35,14.6c0,0-8.1,5.5-11.9,12.9c0,0-1,2.8-1.1,10.3l1,0.6l1.3-10.5l9.8-11.2    c0,0,7.5-1.8,9.2-0.7c0,0,16.5-7.7,17.4-8.4l18.2-6.7L420,164.8z"/>
		<path class="st12" d="M386.2,187c0,0-10.1,10.2-5.8,16.2c4.3,6.1,27,47.1,25.5,49.5"/>
		<path class="st16" d="M392,201.8c0,0,1.4-3.3,8.9-5.3c7.5-2,0,0.3,0,0.3s43.1-2.6,48.1,3.4l8.8-6.6l-0.2-1.6c0,0-5.9-2.3-51.6,0    l-14.7,5.4C391.2,197.3,390.5,202.4,392,201.8z"/>
		<path class="st17" d="M392,201.8c0,0,2.6-5.2,13.1-5.2c10.5,0,35.8-2,44.1,3.4c0,0-4.2,4.5-7.6,5c-3.3,0.5-19.2,1.8-27.2-1.2    C414.5,203.8,396.6,200.7,392,201.8z"/>
		<path class="st18" d="M399.1,194.2"/>
		<path class="st19" d="M457.5,187c0,0-45.6-1.1-49.8,0.5c-4.1,1.6-10.3,4-16.1,8.3c0,0-1.7,2.8,1.7,0.9c3.4-1.9,12.6-4.7,12.6-4.7    s31.2-3.2,51.6,0C457.5,192,458.1,188.8,457.5,187z"/>
		<path class="st20" d="M392.1,202.1l0.5,1.1c0,0,11,0.5,16.8,1.5c0,0,13.4,3,22.1,2.8l0.1-1.7c0,0-15-1.1-20.1-2.6    C411.6,203.2,394.1,201,392.1,202.1z"/>
		<g>
			<defs>
				<path id="SVGID_2_" d="M407.3,191.9c0,0,30-2.6,41.5-0.9c11.5,1.6-8.5,13.4-8.5,13.4l-4.9,1.3l-0.7,0.1c0,0-8.4,0-9.7-0.5      c0,0-18.8-2.2-19.4-2.9C404.9,201.6,407.3,191.9,407.3,191.9z"/>
			</defs>
			<clipPath id="SVGID_3_">
				<use xlink:href="#SVGID_2_" style="overflow:visible;"/>
			</clipPath>
			<g class="st21">
				<circle class="st22" cx="421.3" cy="197.3" r="14"/>
				<path class="st19" d="M417.7,187.9c0,0-9.7,4.5-8,17c0.3,2,0.3,0,0.3,0s-1.5,3.8,6.1,0c0,0,5.7-2.5,5.9-2.9l5.7,1.1      c0,0-3.9,6.7-11.7,2.4c-7.8-4.4-1.3-0.8-1.3-0.8l-0.7,0.5c0,0,4.5,3.5,10.5,2.7c0,0,6.4,0,10.4-5.7c0,0-7.4-6.6-9.8-7.6      c0,0-1.3-5.3-2.1-5.7c0,0,7.5-0.7,8.2,9.5c0,0,1.4,4.3,0.4-1.9c-0.4-2.3-0.2-1.3-0.2-1.3s-1.3-10.9-12.4-11.6      c0,0-0.4,1.6-0.8,4.1c-0.3,2-0.6,4.7-0.7,7.7c0,0,0,0.1,0,0.1l-4.1,4.6c0,0-2.8-8,4.2-11.5c7-3.5,0.8-0.4,0.8-0.4"/>
				<circle class="st18" cx="421.3" cy="197.3" r="2.8"/>
				<path class="st23" d="M427.1,187c0,0,0.1,0.2,0.2,0.6c0.5,1.9,1.7,7.8-2.2,7.1c-4.6-0.9-5.4,7.5,0.2,8.5c5.6,1-0.9,2.5-2.2,3      c-1.2,0.5,5.4,2.1,8.6-2.1c3.3-4.2-4.2-5.2-5.3-5.7c-1.1-0.4,5.4-6,4.6-7.4"/>
			</g>
		</g>
		<path class="st24" d="M322.2,199.2c-3.7,1.3-43.2,2.3-43.2,2.3l-0.7,1.6h-12l0-2.9c0,0-11.6-1.7,0.3-0.4c12,1.3,37-0.6,39.3-0.7    c2.2-0.1,9.4-1.3,13.5-0.9c4.1,0.4,3-0.2,3-0.2"/>
		<path class="st25" d="M266.7,192.6c0,0,36.3-4.7,53.4,5.6h3c0,0,7.6-2.9-22.2-12.5c0,0-29.2-4.5-34.5-1.7L266.7,192.6z"/>
		<path class="st26" d="M266.7,178.2l-0.3,5.8c0,0,28.1-1.2,39.3,3c11.2,4.1,15.8,7.1,17.9,9.7c0,0,5.5,0.2-5.5-6.7    c-11-6.9-22.5-10.9-26-10.9C288.4,179.1,266.7,178.2,266.7,178.2z"/>
		<path class="st27" d="M266.7,192.6l0.5,7.4c0,0,24.5,0.9,33.9-0.4c0,0,19.3-1.8,21.1-1.1c1.8,0.8,0.4,0.1,0.4,0.1l-2.5-0.4    C320.1,198.1,303.4,187.7,266.7,192.6z"/>
		<g>
			<defs>
				<path id="SVGID_4_" d="M266.4,183.5l0.3,16.8c0,0,7.8,0.6,10.7,0.3c2.9-0.2,22.7,0.4,30.4-1.3c0,0,11.6-0.7,14.3-0.5      c0.2,0,0.4,0,0.5,0.1c1.3,0.4-12.2-8.4-12.2-8.4l-3.9-3.2c0,0,0.6-1.8-29.6-3.9C246.6,181.3,266.4,183.5,266.4,183.5z"/>
			</defs>
			<clipPath id="SVGID_5_">
				<use xlink:href="#SVGID_4_" style="overflow:visible;"/>
			</clipPath>
			<g class="st28">
				<path class="st22" d="M303.8,189.6c1.1,8.1-4.3,15.6-12,16.7c-7.7,1.1-14.8-4.5-15.8-12.7c-1.1-8.1,4.3-15.6,12-16.8      C295.6,175.8,302.7,181.5,303.8,189.6z"/>
				<path class="st19" d="M286.2,181.7c0,0-9.7,4.8-8,17.9c0.3,2.2,0.3,0,0.3,0s-1.5,4,6.1,0c0,0,5.7-2.6,5.9-3.1l5.7,1.2      c0,0-3.9,7.1-11.7,2.5c-7.8-4.6-1.3-0.8-1.3-0.8l-0.7,0.5c0,0,4.5,3.7,10.5,2.8c0,0,6.4,0,10.4-6c0,0-7.4-7-9.8-8      c0,0-1.3-5.6-2.1-6c0,0,7.5-0.7,8.2,10c0,0,1.4,4.5,0.4-2c-0.4-2.4-0.2-1.4-0.2-1.4s-1.3-11.5-12.5-12.2c0,0-0.4,1.6-0.8,4.4      c-0.3,2.1-0.6,5-0.7,8.2c0,0,0,0.1,0,0.1l-4.1,4.8c0,0-2.8-8.5,4.2-12.2c7-3.7,0.8-0.4,0.8-0.4"/>
				<path class="st18" d="M292.6,191.2c0.2,1.6-0.9,3.1-2.4,3.3c-1.5,0.2-2.9-0.9-3.1-2.5c-0.2-1.6,0.9-3.1,2.4-3.3      C291,188.5,292.4,189.6,292.6,191.2z"/>
				<path class="st23" d="M295.7,180.8c0,0,0.1,0.2,0.2,0.6c0.5,2,1.7,8.2-2.2,7.5c-4.6-0.9-5.4,7.9,0.2,8.9c5.6,1-0.9,2.6-2.2,3.2      c-1.2,0.6,5.4,2.2,8.6-2.2c3.3-4.4-4.2-5.5-5.3-6c-1.1-0.5,5.4-6.4,4.6-7.8"/>
			</g>
		</g>
		<path class="st13" d="M335.4,176.3h1.2c0,0,6.7,14,6.7,15c0,0-6.1-3.2-5.9-2.2c0.8,4,0.9,12.5,0.2,14.1    c-0.7,1.6-21.1,29.3-21.1,29.3l-1.3,1.8c0,0,0.2-7.7,1.6-9.4c0,0,6.6-13,7.5-19.7c0,0,1.9-2.4-0.8-5.6l-0.4-3c0,0,0.5-0.3,0.8-0.9    c0.3-0.7,2.6,0.1-3.3-4.1c0,0-17.5-11.5-28.7-12.6l-25.3-0.9l-1.2-12.8c0,0,0.9-0.1,6.5-0.4c5.5-0.3-0.1-0.5-0.1-0.5l17.9-0.4    c0,0,1.3,0.1,3.4,0.8c5.4,1.7,15.7,5.3,20.6,7.5c6.8,3.1,16.8,5,19.1,5c2.3,0,2.7,0.2,2.5-0.9"/>
		<path class="st13" d="M347.6,274.4c0,0-0.8-5.1,11.6-6.2c0,0,10.1-0.7,14.4,3.1c0,0,3.7,4.2-5.2,11.1c0,0-6.9,3.4-7.4,3    c-0.5-0.4,0.5,0.4,0.5,0.4S349.1,281.5,347.6,274.4z"/>
		<path class="st12" d="M352.5,273.4c0,0,0.4-2.9,4.9-2.6"/>
		<line class="st12" x1="367.1" y1="275.3" x2="369.9" y2="270.8"/>
		<path class="st29" d="M372.1,247.5v-3.7c0,0-1.5-2.1-1.7,0.9l-0.6-0.2v13.9h0.5c0,0-0.5,5.9,2.4,1.9l-0.2-12.1v-0.7H372.1z"/>
		<path class="st13" d="M245,225c0,0-3.8,24.5-4.3,48.1c-0.4,18.1,2.3,35.6,3.9,41.6c3.7,13.9,87.9,85.8,119.9,66.7    c0,0,73.9-33.7,90.2-91c0,0,8.6-12.7,11-64l-10.4,21.3l-3,27.7l-8.4,18.7c0,0-36.3,74.5-86.5,80.9c0,0-27.8,2.6-63.7-24    c-35.9-26.6-48.3-69.7-43.8-77.9l20.6,29.2l-7.6-27C262.8,275.3,245,228.5,245,225z"/>
		<path class="st13" d="M453,200.2c0,0-8.6,56.7-15.9,59.8c0,0,7.2-3.4,9.8-12.6l2.4-2c0,0,10.8-37.9,7.9-49.3L453,200.2z"/>
		<polyline class="st30" points="323.9,307.7 342.5,301.6 374.4,302.1 383.2,307.7   "/>
		<path class="st31" d="M340.3,313.9c0,0-3,5.2,13.7,7.9c0,0,13.5,0.9,16-5.6c2.5-6.6,0-0.5,0-0.5L340.3,313.9z"/>
		<path class="st30" d="M340.7,313.9c0,0,25.9,0.1,30,1.5"/>
		<path class="st32" d="M244.4,224.4c0,0-4.1,75.8-0.4,89.7c3.7,13.9,87.9,85.8,119.9,66.7c0,0,73.9-33.7,90.2-91    c0,0,8.6-12.7,11-64l-10.4,21.3l-3,27.7l-8.4,18.7c0,0-36.3,74.5-86.5,80.9c0,0-27.8,2.6-63.7-24c-35.9-26.6-48.3-69.7-43.8-77.9    l20.6,29.2l-7.6-27C262.3,274.8,244.4,228,244.4,224.4z"/>
		<path class="st33" d="M242.5,310l-5.7,33.9c0,0,33.7-4.9,31.1,2.2c-2.6,7.1,0.7,1.5,0.7,1.5l0.2,111.2v2.2h183    c0,0-33-16.9-52.1-36.3l13.9-75.3c0,0-44.4,38.8-68.5,33.5C320.9,377.8,278.8,356.8,242.5,310z"/>
		<path class="st20" d="M457.8,193.5l-5.3,3.2c0,0-6.1,7-11.2,8.4h-4.6l-0.9,2.6l8.2,2.8c0,0,2.7,0.7-0.6-2.9l3.3-1.1l6.5-0.4    c0,0,2.2-1.6-4.9-1.3l8.7-8.7L457.8,193.5z"/>
		<path class="st34" d="M505.5,267.9c0,0,85.4,20.4,84.3,43.1c-1.1,22.7-20.4,106.3-36.1,150.2h-92.5c0,0-23.2,4.1-61.8-38.2    l14.2-73.4c0,0,36.9-33.6,44.1-67c7.2-33.4,16.8-18,16.8-18L505.5,267.9z"/>
		<path class="st35" d="M173.6,263.2c0,0-151.3,38.3-82.5,59c68.8,20.7,94.6,31.9,94.6,31.9l30.6-3.1l-24.7-79.1L173.6,263.2z"/>
		<path class="st36" d="M175.2,263.1c0,0-136.8,31-93,54.4c0,0,44.4,23.1,170.2,23.1c0,0,15.4-2.5,16,7c0.6,9.5,0,113.5,0,113.5    l-185.1,0l3.4-5.3c0,0-5.1-7.9-5.1-9.3c0-1.4-12.4-84.4-12.4-84.4s-5.6-54.9,3.7-60.5c9.3-5.6,48.6-29.9,100.6-39.5L175.2,263.1z"/>
		<line class="st30" x1="294.1" y1="442" x2="300.8" y2="461.2"/>
		<line class="st30" x1="371.3" y1="444.6" x2="367.1" y2="460.6"/>
		<path class="st13" d="M280.9,459.5c0,0,3.1-19.7,5.6-11.9L291,460L280.9,459.5z"/>
		<circle class="st30" cx="409.2" cy="455.5" r="3.4"/>
		<path class="st13" d="M268.7,408.7c0,0,49.3,36.7,68.4,33.7c19.1-3,27.4-5.4,69.9-56.1l6.5-36.8c0,0-40.6,40.8-73.4,33.4    c-27.2-6.1-86.7-48.2-96-71.8c0,0-5,31.3,2.6,32.2c7.6,0.9,21.8-2.2,21.8,14.2C268.5,373.9,268.7,408.7,268.7,408.7z"/>
		<path class="st33" d="M399.3,422.9c0,0-0.9,12.1,0,15.7"/>
		<path class="st37" d="M253.4,340l-2.3,120.6l18,0V347.1C269.1,347.1,267.2,337,253.4,340z"/>
		<line class="st33" x1="405.7" y1="389.6" x2="413.5" y2="349.5"/>
		<polygon class="st13" points="303.8,165.2 354.7,166.4 379.1,166 412,167.9 422.1,160.4 291.8,156.2   "/>
		<path class="st38" d="M267.7,152.8l-0.5,12.5c0,0,151.6-9.3,194.6,7.1l1.9-15.7C463.7,156.6,386.9,142.7,267.7,152.8z"/>
		<path class="st39" d="M504.4,273.4c0,0,83.7,24.8,82.1,38.3c0,0,2.5-23.6-81.2-42.1L504.4,273.4z"/>
		<path class="st2" d="M272.1,269.5c0,0-23-124.2,21.9-213.5v47.8c0,0,7.9,50,13.5,52.8c0,0,6.7-102.2,23-127h80.3    c0,0,24.2,46.1,24.2,76.4c0,0,6.2,51.1-9,119.7l-8.4,23c0,0,29.2-43.3,36.5-136.5c0,0,17.4,91-14.6,161.2l25.7-45.3l-1.5,24.3    c0,0-14.3,84.1-18.3,99.7c-0.1,0.6-0.3,1-0.4,1.4c-3.4,10.9,29.6-49.1,30.3-56.9c0.7-7.9-1.1,58.4-22.1,98.9    c0,0,22.7-33.7,22.2-36c-0.5-2.2,26.5-39.5,31-105.2l6.7-55.1c0,0,5.1,84.3,5.1,88.2c0,3.9,37.4-136-30.9-257.9H202.5    c0,0-71.6,82.1-38.7,272.5l7.8-56.8c0,0,3.4,52.8,26.4,93.8l50.8,5.6c0,0-11.3-40.3-3.8-119.8l13.9,43.6c0,0,13.1,23.2,20.6,31.8"/>
		<path class="st40" d="M155.2,212.6c0,0,20.3-111,38.9-135.2c0,0-18,77.5-7.9,148.9c0,0,13.5-80.9,23-89.3c0,0-7.3,58,0,75.7    c0,0,2.8-66.7,38.8-135.2c0,0-10.7,65.2,0,121.3c0,0,2.8-78.6,53.9-169.1h4.5c0,0-15.7,68.8,0,121.1c0,0,3.9-74.8,13.2-88.5    c0,0,8.2-30.3,11-32.5H202.5C202.5,29.7,153.4,80.4,155.2,212.6z"/>
		<path class="st40" d="M411.4,30.6c0,0,21.3,38.6,24.5,71.1c3.1,32.5,0.9,97.1-11.5,128.6v4l11.1-25.1c0,0,19.4-74.6,20.1-123.9    c0,0,20.5,88.8,8.1,135.7v5.3c0,0,18.8-43.7,20.8-65.5c0,0,4.5,66.1,0,90.5c0,0,11-67.4,13.2-67.3c0,0,6.5,80.8,0,114.8    c0,0,18.4-81,16.2-100.7l5.6,82.9l6.8-49.9c0,0,11-137.8-40.2-200.5l-75.7-1.3"/>
		<path class="st41" d="M71.6,304.8c0,0-6.2,31.1,0,58.6l5.1,13.8l17.4,18.4c0,0,30.6,18.1,34.4,18.1c0,0,29.5,12.1,33.1,15    l17.7,9.7l22.8,22.7l48.5,0c0,0,3.4-119.7,2-119.7c0,0,0.6-1-5.6-1c-6.2,0-44.1-0.4-44.1-0.4s-29.6-1.4-38.6-2.8    c-9-1.4-43-6.3-43.4-6.6C120.3,330.4,69.6,325,71.6,304.8z"/>
		<circle class="st42" cx="232.9" cy="365.1" r="8.3"/>
		<path class="st43" d="M416.2,440l-0.8,5.6c0,0-3.4,2.2-7.9,1.2c0,0-7.3,3.2-5.6,5.7c0,0-0.5,8.1-2.6,8.6h16.1c0,0,2-2.6,1.7-4.9    C416.8,454.1,413.4,441.4,416.2,440z"/>
		<path class="st44" d="M459.2,461.1l6.5-31.1c0,0,11.6-64.9,10.6-72.5c0,0-0.2-24.1,15.9-21.5c0,0,86.4-6.4,97.5-24.3    c0,0-0.4,20.5-6,39.6c-5.6,19.1-22.5,96.3-30.6,109.8h-95.7"/>
		<path class="st45" d="M492.2,337c0,0-8.6,90.6-17.2,123.6l78.6,0.1c0,0,44.6-142,36.1-150.3c0,0-4.7,8.2-13.3,9.4    c0,0-28.5,13.5-83.1,16.5"/>
	</g>
</g>
</svg>
